<?xml version="1.0" encoding="UTF-8" standalone="no"?>
<!-- Created with Inkscape (http://www.inkscape.org/) -->

<svg
   width="64.142868mm"
   height="64.142868mm"
   viewBox="0 0 64.142868 64.142868"
   version="1.1"
   id="svg1"
   xmlns="http://www.w3.org/2000/svg"
   xmlns:svg="http://www.w3.org/2000/svg">
  <defs
     id="defs1" />
  <g
     id="layer1"
     transform="translate(-59.545738,-72.933928)">
    <circle
       style="fill:none;fill-opacity:1;stroke:#19f2ff;stroke-width:7.965;stroke-dasharray:none;stroke-opacity:1"
       id="path1"
       cx="91.617172"
       cy="105.00536"
       r="28.088934" />
    <circle
       style="fill:#ffffff;fill-opacity:1;stroke:none;stroke-width:4.6179;stroke-dasharray:none;stroke-opacity:1"
       id="path2"
       cx="93.107681"
       cy="123.16051"
       r="3.7288613" />
    <path
       style="fill:#ffffff;fill-opacity:1;stroke:none;stroke-width:4.6179;stroke-dasharray:none;stroke-opacity:1"
       d="m 77.794208,98.357609 c -1.196886,-0.70239 -1.505145,-3.842861 -1.505145,-3.842861 -0.349558,-1.460527 0.158671,-2.925235 0.979627,-4.397514 0.82095,-1.472299 2.322635,-3.123409 4.016292,-3.915291 2.898602,-1.355277 6.421951,-1.654437 9.549419,-0.977965 3.307925,0.715508 6.212481,2.899565 8.770093,5.116083 1.611366,1.396479 3.175886,3.452955 3.976056,5.011069 0.80017,1.558124 1.08577,1.944404 0.9919,4.213794 -0.0939,2.269406 -1.08248,6.313146 -2.87106,8.844746 -1.34788,1.90781 -4.424844,2.22437 -5.559527,4.26617 -0.648276,1.16655 0.613695,3.10765 -0.392449,3.98445 -1.229298,1.07124 -3.704342,0.93073 -4.88798,-0.19076 -0.958221,-0.90792 -0.699367,-2.66539 -0.367422,-3.94301 0.571016,-2.19778 2.207892,-4.12209 3.853816,-5.61737 1.105666,-1.00445 2.460095,-1.58599 2.496064,-3.7219 0.03596,-2.13591 -0.05533,-4.421532 -0.99122,-6.347786 -0.692889,-1.426104 -1.815894,-2.786569 -3.241019,-3.48147 -2.68274,-1.308138 -6.42617,-2.409761 -8.920775,-0.771081 -1.527557,1.00343 -0.329227,4.034162 -1.736042,5.20087 -1.077489,0.893589 -2.963726,1.272205 -4.160605,0.569816 z"
       id="path3" />
  </g>
</svg>
